<?xml version="1.0" encoding="iso-8859-1"?>
<!-- Uploaded to: SVG Repo, www.svgrepo.com, Generator: SVG Repo Mixer Tools -->
<svg height="800px" width="800px" version="1.1" id="Layer_1" xmlns="http://www.w3.org/2000/svg" xmlns:xlink="http://www.w3.org/1999/xlink" 
	 viewBox="0 0 446.204 446.204" xml:space="preserve">
<g>
	<path style="fill:#2c2c2c;" d="M121.517,193.247l199.248,66.818c-18.45,55.02-78.006,84.661-133.037,66.208
		C132.708,307.823,103.067,248.266,121.517,193.247z"/>
	<circle style="fill:#ffffff;" cx="222.159" cy="227.533" r="80.443"/>
	<circle style="fill:#2c2c2c;" cx="222.159" cy="227.533" r="75.761"/>
	<path style="fill:#2c2c2c;" d="M325.959,219.578L141.78,157.806c27.067-31.174,71.199-44.726,112.766-30.782
		C296.124,140.972,323.173,178.385,325.959,219.578z"/>
	<path style="fill:#ffffff;" d="M320.765,260.065l39.474,13.233c-25.766,76.816-108.925,118.204-185.744,92.449
		S56.298,256.837,82.042,180.014l39.474,13.233c-18.45,55.02,11.192,114.576,66.212,133.026
		C242.758,344.726,302.315,315.084,320.765,260.065z"/>
	<path style="fill:#ffffff;" d="M437.687,286.375c3.285,1.593,4.052,4.786,3.166,7.44c-0.976,2.921-3.965,5.194-7.786,3.906
		l-72.828-24.422l-39.474-13.233l-199.248-66.818l-39.474-13.233l0.004-0.011L9.218,155.58c-7.28-2.431-4.382-13.335,3.148-11.837
		c17.643,3.501,35.537,2.463,52.211-2.638c16.692-5.083,32.16-14.217,44.928-26.881c41.167-40.815,103.296-57.453,162.002-37.76
		c58.71,19.682,98.252,70.413,106.485,127.801C383.092,239.862,405.31,270.704,437.687,286.375z M141.78,157.806l184.179,61.772
		c-2.786-41.193-29.835-78.606-71.413-92.554C212.979,113.08,168.846,126.632,141.78,157.806z"/>



</g>
</svg>